<svg width="25" height="23" viewBox="0 0 25 23" fill="none" xmlns="http://www.w3.org/2000/svg">
<path d="M12.077 4.564V5.119L12.032 5.129C12.006 5.129 11.884 5.144 11.76 5.157C10.6348 5.27798 9.55549 5.66908 8.61399 6.297C7.8494 6.809 7.19239 7.46567 6.67999 8.23C6.00686 9.23712 5.60633 10.4015 5.51747 11.6096C5.42861 12.8177 5.65446 14.0282 6.17299 15.123C6.22299 15.226 6.26299 15.313 6.26299 15.318C6.26299 15.318 6.02699 15.463 5.73499 15.631C5.5527 15.735 5.37136 15.8407 5.19099 15.948C5.17699 15.958 5.20399 16.011 5.38699 16.328C5.45725 16.4531 5.53061 16.5765 5.60699 16.698C5.79158 16.5962 5.97493 16.4922 6.15699 16.386C6.45399 16.213 6.70099 16.073 6.70699 16.073C6.70999 16.073 6.75899 16.136 6.81299 16.213C7.30479 16.8957 7.91472 17.485 8.61399 17.953C9.13911 18.3005 9.70721 18.5781 10.304 18.779C11.7355 19.2547 13.2825 19.2547 14.714 18.779C15.3108 18.5788 15.879 18.3014 16.404 17.954C17.1114 17.4811 17.7267 16.8833 18.22 16.19C18.283 16.1 18.337 16.028 18.34 16.028C18.342 16.028 18.584 16.166 18.876 16.334C19.168 16.504 19.415 16.644 19.424 16.648C19.437 16.658 19.488 16.573 19.654 16.286C19.846 15.955 19.864 15.915 19.849 15.903C19.839 15.893 19.594 15.753 19.303 15.586C19.1254 15.4849 18.9497 15.3805 18.776 15.273C18.776 15.273 18.812 15.191 18.856 15.099C19.4597 13.8082 19.6571 12.3645 19.422 10.959C19.2556 9.98318 18.8864 9.05313 18.338 8.229C17.8978 7.57036 17.3494 6.99086 16.716 6.515C16.3779 6.26019 16.0162 6.03819 15.636 5.852C14.8924 5.4767 14.0865 5.24048 13.258 5.155L12.988 5.127L12.94 5.117V4.007H12.077V4.564ZM12.077 7.666V8.916H11.585C11.3 8.916 11.095 8.916 11.098 8.926C11.108 8.958 12.526 11.701 12.53 11.701C12.534 11.701 13.95 8.958 13.964 8.927C13.966 8.917 13.751 8.917 13.454 8.917H12.94V6.415H12.99C13.141 6.415 13.596 6.491 13.902 6.567C14.2958 6.66309 14.6773 6.80401 15.039 6.987C15.4569 7.18973 15.8482 7.44332 16.204 7.742C16.369 7.878 16.793 8.309 16.934 8.484C17.144 8.744 17.34 9.029 17.501 9.312C17.587 9.464 17.764 9.832 17.831 10.002C18.3279 11.254 18.3686 12.641 17.946 13.92C17.85 14.21 17.676 14.623 17.652 14.623C17.639 14.623 15.659 13.483 15.639 13.463C15.626 13.452 15.661 13.383 15.862 13.036C15.992 12.808 16.102 12.618 16.102 12.612C16.102 12.601 16.109 12.601 15.852 12.59C15.75 12.59 15.657 12.58 15.648 12.579C15.638 12.579 15.543 12.569 15.433 12.569C15.323 12.569 15.209 12.559 15.179 12.557C15.149 12.557 15.053 12.547 14.963 12.546C14.875 12.546 14.78 12.536 14.753 12.535C14.726 12.535 14.619 12.525 14.516 12.523C14.412 12.523 14.311 12.513 14.291 12.513C14.271 12.513 14.173 12.503 14.071 12.502C13.969 12.502 13.868 12.492 13.847 12.491C13.827 12.491 13.717 12.481 13.604 12.48C13.492 12.48 13.392 12.47 13.384 12.469C13.342 12.459 12.984 12.451 12.984 12.457C12.984 12.457 13.291 12.941 13.666 13.524L14.509 14.834C14.655 15.06 14.672 15.084 14.685 15.067C14.693 15.056 14.809 14.857 14.944 14.624L15.189 14.2L15.221 14.219L16.234 14.803C16.772 15.113 17.212 15.373 17.212 15.378C17.212 15.394 17.052 15.608 16.922 15.768C16.6972 16.0246 16.4575 16.2677 16.204 16.496C15.9644 16.6946 15.7104 16.8751 15.444 17.036C15.18 17.1866 14.9071 17.3212 14.627 17.439C13.2666 17.9788 11.7514 17.9788 10.391 17.439C10.191 17.359 9.75699 17.147 9.57499 17.036C9.30852 16.8752 9.05448 16.6947 8.81499 16.496C8.56941 16.2766 8.337 16.0428 8.11899 15.796C8.01499 15.6741 7.91816 15.5462 7.82899 15.413C7.83099 15.413 8.27199 15.156 8.80899 14.846L9.81899 14.263L9.85299 14.242L10.088 14.649C10.218 14.873 10.328 15.065 10.336 15.076C10.347 15.093 10.356 15.086 10.416 14.99C10.452 14.932 10.548 14.78 10.629 14.657L10.896 14.242C11.01 14.062 11.381 13.486 11.479 13.336L11.721 12.959L11.976 12.563C11.9982 12.531 12.0176 12.4973 12.034 12.462C12.034 12.452 12.008 12.452 11.951 12.452C11.905 12.452 11.801 12.462 11.721 12.464C11.641 12.464 11.539 12.474 11.495 12.474C11.407 12.484 11.256 12.488 11.042 12.497C10.967 12.497 10.87 12.507 10.826 12.507C10.782 12.507 10.686 12.517 10.61 12.519C10.473 12.529 10.35 12.531 10.16 12.541C10.102 12.541 9.94799 12.551 9.81799 12.557C9.68799 12.567 9.53299 12.57 9.47599 12.573C9.41699 12.573 9.32299 12.583 9.26599 12.583C9.00299 12.597 8.91699 12.603 8.91699 12.61C8.91699 12.61 9.02999 12.813 9.16899 13.053L9.42199 13.49L9.39199 13.507C9.29899 13.567 7.39599 14.66 7.38799 14.66C7.37499 14.66 7.27399 14.446 7.19799 14.254C6.88127 13.4639 6.74265 12.6138 6.79199 11.764C6.86788 10.5603 7.3194 9.41064 8.08299 8.477C8.22599 8.303 8.64999 7.871 8.81499 7.735C9.19299 7.422 9.54499 7.195 9.97899 6.979C10.379 6.783 10.704 6.662 11.116 6.559C11.426 6.482 11.849 6.411 12.016 6.409H12.077V7.666ZM9.03099 0.306L8.86299 1.27C8.77499 1.783 8.69799 2.21 8.69299 2.217C8.64129 2.24856 8.58629 2.27438 8.52899 2.294C6.82616 2.98317 5.33179 4.10329 4.19258 5.54439C3.05337 6.9855 2.30847 8.69807 2.03099 10.514C2.02114 10.5863 2.00779 10.658 1.99099 10.729C1.97099 10.782 1.92699 11.196 1.90699 11.554C1.89288 11.9319 1.89288 12.3101 1.90699 12.688C1.91999 12.923 1.93999 13.143 1.97299 13.424L1.99699 13.623L1.95399 13.663C1.84516 13.7646 1.73583 13.8656 1.62599 13.966L1.42599 14.149C1.33599 14.234 1.31999 14.249 0.863988 14.671C0.665988 14.851 0.503988 15.006 0.499988 15.011C0.496988 15.011 0.631988 15.257 0.798988 15.547L2.53699 18.557C3.01304 19.3884 3.49505 20.2165 3.98299 21.041C3.98899 21.041 4.07399 21.011 4.17299 20.975L4.64099 20.804C5.59099 20.456 5.82299 20.372 5.83099 20.372C5.85802 20.3866 5.8832 20.4044 5.90599 20.425C6.10299 20.59 6.58699 20.931 6.90599 21.129C7.50805 21.4968 8.14354 21.8069 8.80399 22.055C10.389 22.6446 12.0917 22.8479 13.771 22.648C14.6556 22.5408 15.5233 22.3235 16.354 22.001C16.46 21.959 16.557 21.923 16.569 21.921C16.628 21.911 16.973 21.754 17.314 21.581C17.867 21.301 18.351 21.001 18.859 20.621L19.067 20.469L19.123 20.486L19.212 20.514C19.6604 20.6513 20.1081 20.791 20.555 20.933C20.57 20.943 20.632 20.958 20.695 20.976L20.908 21.043C20.9437 21.0557 20.9805 21.0651 21.018 21.071C21.031 21.071 24.504 15.054 24.5 15.044C24.497 15.034 24.29 14.862 23.424 14.14L23.009 13.793C22.989 13.773 22.989 13.77 23.011 13.613C23.131 12.769 23.145 11.933 23.056 11.053C22.8872 9.37396 22.3196 7.75958 21.4004 6.34435C20.4813 4.92912 19.2373 3.75404 17.772 2.917C17.3754 2.69317 16.966 2.49283 16.546 2.317C16.496 2.297 16.454 2.272 16.452 2.263C16.449 2.253 16.348 1.811 16.229 1.28L16.007 0.296C16.002 0.279 15.827 0.278 12.518 0.278H9.03799L9.03099 0.306ZM15.426 0.856C15.5711 1.46593 15.7131 2.07661 15.852 2.688C15.86 2.718 15.872 2.725 16.065 2.798C16.49 2.963 16.995 3.198 17.347 3.395C18.7853 4.19234 20.0041 5.33295 20.895 6.71528C21.7858 8.09762 22.321 9.67878 22.453 11.318C22.488 11.75 22.495 12.517 22.465 12.876C22.437 13.221 22.384 13.626 22.322 13.969L22.309 14.042L22.357 14.088C22.4399 14.1634 22.5249 14.2364 22.612 14.307C22.618 14.317 22.674 14.36 22.735 14.409L22.949 14.586L23.359 14.93C23.772 15.275 23.743 15.248 23.729 15.27C23.725 15.28 23.069 16.412 22.277 17.786C21.41 19.289 20.827 20.286 20.819 20.286C20.809 20.286 20.724 20.262 20.628 20.233L20.415 20.169C20.1285 20.0845 19.8428 19.9972 19.558 19.907C19.546 19.897 19.515 19.892 19.488 19.885C19.461 19.875 19.43 19.869 19.418 19.863C19.406 19.853 19.363 19.843 19.321 19.833L19.114 19.771C18.984 19.731 18.982 19.731 18.954 19.751L18.774 19.896C18.513 20.106 18.031 20.456 18.001 20.456C17.9641 20.4738 17.9286 20.4945 17.895 20.518C16.47 21.4285 14.8383 21.9647 13.151 22.077C12.7232 22.094 12.2948 22.094 11.867 22.077C10.462 21.972 9.22699 21.634 8.02199 21.027C7.39651 20.7119 6.80535 20.3329 6.25799 19.896C6.23087 19.8712 6.2014 19.8491 6.16999 19.83C6.12864 19.8013 6.08953 19.7696 6.05299 19.735L5.94899 19.645L5.89899 19.655C5.74108 19.702 5.58556 19.7568 5.43299 19.819C5.25729 19.8848 5.08129 19.9498 4.90499 20.014L4.37599 20.207C4.3143 20.2317 4.25158 20.2537 4.18799 20.273C4.18199 20.273 3.52199 19.139 2.72199 17.753L1.26699 15.233L1.30399 15.202L1.51799 15L1.76599 14.767L1.93899 14.603C1.99499 14.549 2.06699 14.483 2.09899 14.453L2.19899 14.363C2.33479 14.2338 2.47146 14.1054 2.60899 13.978L2.68099 13.908L2.66599 13.831C2.60665 13.5003 2.56725 13.1664 2.54799 12.831C2.54799 12.744 2.54199 12.511 2.53799 12.313C2.50436 10.6415 2.89174 8.98832 3.66449 7.50574C4.43723 6.02316 5.5705 4.75879 6.95999 3.829C7.63765 3.37359 8.36925 3.00409 9.13799 2.729C9.26199 2.685 9.26799 2.681 9.27599 2.647C9.28699 2.604 9.35699 2.21 9.48999 1.445L9.59299 0.859L9.59799 0.835H12.508C15.273 0.835 15.42 0.835 15.426 0.853V0.856Z" fill="black"/>
</svg>
