<svg width="24" height="24" viewBox="0 0 24 24" fill="none" xmlns="http://www.w3.org/2000/svg">
<path d="M14.7321 1.91367C14.7595 1.88182 14.7936 1.85546 14.8323 1.83618C14.871 1.81689 14.9136 1.8051 14.9574 1.80151C15.0012 1.79792 15.0453 1.8026 15.0871 1.81528C15.1289 1.82796 15.1674 1.84837 15.2004 1.87527L16.3952 2.84968L12.6344 7.19975H15.1265L17.8586 4.0413L20.0017 5.78973C20.0651 5.84153 20.1041 5.91417 20.1104 5.99218C20.1167 6.07019 20.0898 6.1474 20.0355 6.20733L19.1403 7.19975H21.6623C21.9747 6.77671 22.1091 6.26264 22.0403 5.7543C21.9715 5.24596 21.7042 4.77843 21.2886 4.4397L16.4886 0.524046C16.2571 0.335407 15.9864 0.192411 15.6931 0.103791C15.3998 0.0151709 15.09 -0.0172128 14.7827 0.00861779C14.4754 0.0344483 14.1771 0.117951 13.9058 0.254026C13.6346 0.3901 13.3962 0.575891 13.2052 0.80005L7.75265 7.19975H10.2305L14.7321 1.91367ZM2.91892 6.59974C2.66087 6.59974 2.41339 6.69456 2.23092 6.86335C2.04845 7.03213 1.94595 7.26105 1.94595 7.49975C1.94595 7.73845 2.04845 7.96737 2.23092 8.13616C2.41339 8.30494 2.66087 8.39977 2.91892 8.39977H19.7838C20.902 8.39977 21.9744 8.81066 22.7651 9.54207C23.5558 10.2735 24 11.2655 24 12.2998V20.0999C24 21.1343 23.5558 22.1263 22.7651 22.8577C21.9744 23.5891 20.902 24 19.7838 24H4.21622C3.09801 24 2.02559 23.5891 1.2349 22.8577C0.444207 22.1263 0 21.1343 0 20.0999V7.49975C0 6.78366 0.307528 6.09689 0.854931 5.59053C1.40233 5.08418 2.14477 4.79971 2.91892 4.79971H8.52324L6.97686 6.59974H2.91892ZM16.2162 16.4999C16.2162 16.9967 16.6521 17.3999 17.1892 17.3999H19.7838C20.0418 17.3999 20.2893 17.3051 20.4718 17.1363C20.6542 16.9675 20.7568 16.7386 20.7568 16.4999C20.7568 16.2612 20.6542 16.0323 20.4718 15.8635C20.2893 15.6947 20.0418 15.5999 19.7838 15.5999H17.1892C16.9311 15.5999 16.6837 15.6947 16.5012 15.8635C16.3187 16.0323 16.2162 16.2612 16.2162 16.4999Z" fill="#FF617D"/>
</svg>
